HIERARCHY
ROOT root
{
	OFFSET 0.000000 0.000000 0.000000
	CHANNELS 6 Xposition Yposition Zposition Zrotation Yrotation Xrotation
	JOINT lhip
	{
		OFFSET 0.058581 -0.082280 -0.017664
		CHANNELS 3 Zrotation Yrotation Xrotation
		JOINT lknee
		{
			OFFSET 0.043451 -0.386469 0.008037
			CHANNELS 3 Zrotation Yrotation Xrotation
			JOINT lankle
			{
				OFFSET -0.014790 -0.426874 -0.037428
				CHANNELS 3 Zrotation Yrotation Xrotation
				JOINT ltoe
				{
					OFFSET 0.041054 -0.060286 0.122042
					CHANNELS 3 Zrotation Yrotation Xrotation
					End Site
					{
						OFFSET 0.000000 0.000000 0.000000
					}
				}
			}
		}
	}
	JOINT rhip
	{
		OFFSET -0.060310 -0.090513 -0.013543
		CHANNELS 3 Zrotation Yrotation Xrotation
		JOINT rknee
		{
			OFFSET -0.043257 -0.383688 -0.004843
			CHANNELS 3 Zrotation Yrotation Xrotation
			JOINT rankle
			{
				OFFSET 0.019056 -0.420046 -0.034562
				CHANNELS 3 Zrotation Yrotation Xrotation
				JOINT rtoe
				{
					OFFSET -0.034840 -0.062106 0.130323
					CHANNELS 3 Zrotation Yrotation Xrotation
					End Site
					{
						OFFSET 0.000000 0.000000 0.000000
					}
				}
			}
		}
	}
	JOINT lowerback
	{
		OFFSET 0.004439 0.124404 -0.038385
		CHANNELS 3 Zrotation Yrotation Xrotation
		JOINT upperback
		{
			OFFSET 0.004488 0.137956 0.026820
			CHANNELS 3 Zrotation Yrotation Xrotation
			JOINT chest
			{
				OFFSET -0.002265 0.056032 0.002855
				CHANNELS 3 Zrotation Yrotation Xrotation
				JOINT lowerneck
				{
					OFFSET -0.013390 0.211636 -0.033468
					CHANNELS 3 Zrotation Yrotation Xrotation
					JOINT upperneck
					{
						OFFSET 0.010113 0.088937 0.050410
						CHANNELS 3 Zrotation Yrotation Xrotation
						End Site
						{
							OFFSET 0.000000 0.000000 0.000000
						}
					}
				}
				JOINT lclavicle
				{
					OFFSET 0.071702 0.114000 -0.018898
					CHANNELS 3 Zrotation Yrotation Xrotation
					JOINT lshoulder
					{
						OFFSET 0.122921 0.045205 -0.019046
						CHANNELS 3 Zrotation Yrotation Xrotation
						JOINT lelbow
						{
							OFFSET 0.255332 -0.015649 -0.022946
							CHANNELS 3 Zrotation Yrotation Xrotation
							JOINT lwrist
							{
								OFFSET 0.265709 0.012698 -0.007375
								CHANNELS 3 Zrotation Yrotation Xrotation
								End Site
								{
									OFFSET 0.000000 0.000000 0.000000
								}
							}
						}
					}
				}
				JOINT rclavicle
				{
					OFFSET -0.082954 0.112472 -0.023707
					CHANNELS 3 Zrotation Yrotation Xrotation
					JOINT rshoulder
					{
						OFFSET -0.113228 0.046853 -0.008472
						CHANNELS 3 Zrotation Yrotation Xrotation
						JOINT relbow
						{
							OFFSET -0.260127 -0.014369 -0.031269
							CHANNELS 3 Zrotation Yrotation Xrotation
							JOINT rwrist
							{
								OFFSET -0.269108 0.006794 -0.006027
								CHANNELS 3 Zrotation Yrotation Xrotation
								End Site
								{
									OFFSET 0.000000 0.000000 0.000000
								}
							}
						}
					}
				}
			}
		}
	}
}
MOTION
Frames: 12
Frame Time: 0.033333
-0.219919 -0.164501 0.822908 -16.268329 4.927797 129.167513 24.441319 19.945442 -78.677634 -6.784066 22.635631 61.276987 -3.202215 5.951482 -18.643862 0.000000 -0.000000 0.000000 -14.180130 -21.933813 -76.898735 5.196320 -21.723419 56.373249 9.259660 5.136664 -10.348108 0.000000 -0.000000 0.000000 7.659205 -3.290292 65.991808 0.035405 -5.912089 -12.736641 7.912426 3.922833 -0.929368 -26.030990 -4.984972 21.073270 20.478126 18.861449 -46.147159 8.734200 -45.023874 -0.591271 -3.487196 -8.135311 -21.797211 27.622078 -66.273059 -30.642035 0.763598 -8.261793 -39.020557 -6.078181 40.217019 19.120943 8.930000 3.268222 -30.933518 -32.505210 84.001773 -21.409883 -22.850165 10.776462 -18.034713 
-0.217586 -0.165280 0.814368 -16.164007 4.407999 129.875261 24.525108 20.265046 -80.097267 -7.375775 23.655914 62.429435 -2.899277 6.218916 -19.227244 0.000000 -0.000000 0.000000 -14.754540 -23.171104 -78.379125 5.549286 -21.852673 57.553475 9.245372 5.065015 -10.418375 0.000000 -0.000000 0.000000 7.667834 -3.410570 66.054592 0.212115 -5.974164 -13.431177 8.121727 4.403527 -0.013269 -27.936617 -4.650568 19.638503 21.680798 19.351008 -45.921879 13.203280 -43.408172 -5.664577 -0.780761 -9.852670 -29.056588 34.402148 -50.578038 -53.798639 9.604554 -1.590407 -40.311401 -6.755998 39.358851 18.759315 9.050984 1.685821 -29.778588 -46.449118 82.759681 -37.521101 -23.620449 11.027540 -14.914173 
-0.215065 -0.166361 0.805744 -16.318318 4.239763 130.784900 24.652014 21.399288 -81.375626 -8.492796 24.970228 63.356761 -2.538909 6.514653 -19.951291 0.000000 -0.000000 0.000000 -15.192317 -24.043161 -79.961298 6.550150 -21.835779 58.039906 9.591320 4.373484 -9.986766 0.000000 -0.000000 0.000000 7.279578 -3.039838 65.954827 0.563785 -5.743736 -14.282171 8.603894 5.048139 1.154713 -29.744171 -4.804999 18.293851 22.797265 19.361954 -45.942420 17.998181 -41.284355 -11.322268 6.029842 -11.252095 -37.979827 30.510178 -32.053836 -74.249133 23.766220 5.001155 -35.352953 -7.535965 38.250236 16.953281 8.754671 1.002610 -27.201558 -49.579977 80.126488 -44.831287 -25.160070 11.963303 -10.306701 
-0.212240 -0.169419 0.798224 -16.222529 3.922380 131.599291 24.279216 22.250991 -82.651553 -9.633001 25.961175 64.213294 -2.188985 6.744311 -20.858322 0.000000 -0.000000 0.000000 -15.580007 -25.575600 -80.711507 7.949706 -22.054515 57.868386 9.822438 4.140241 -9.559111 0.000000 -0.000000 0.000000 7.678023 -3.086796 65.856217 0.739797 -5.815525 -14.802815 8.699953 5.641690 1.749825 -31.290765 -5.071337 17.944568 23.901442 18.811427 -46.056487 20.949980 -39.779760 -14.944445 14.018445 -6.708868 -45.977947 23.810920 -19.071937 -92.443781 32.981261 5.724145 -29.528011 -6.864015 38.002151 16.488282 7.552214 -0.341129 -25.988559 -47.782043 77.473317 -47.664680 -25.515609 13.286858 -6.194118 
-0.210230 -0.172102 0.792539 -16.800125 3.410732 132.184708 23.538526 22.983184 -83.404245 -10.554285 26.804601 64.924515 -1.673641 7.158652 -21.671830 0.000000 -0.000000 0.000000 -16.042355 -26.856945 -81.548140 8.850866 -22.149115 58.039998 10.395510 4.389359 -9.200248 0.000000 -0.000000 0.000000 7.577104 -2.738882 65.293117 0.814532 -5.846740 -14.599601 8.130852 6.362266 1.821889 -31.667046 -4.372426 19.315781 24.184451 17.632928 -46.979757 20.324056 -37.230471 -15.286330 17.065176 -0.881741 -44.464556 18.199518 -21.264383 -88.792340 30.024508 2.818357 -27.708463 -4.826161 38.166647 18.088195 6.768803 -1.763795 -26.100003 -49.276954 75.053411 -51.099295 -25.210756 12.966279 -5.640462 
-0.207955 -0.174657 0.790167 -17.534596 2.428633 131.962216 22.769660 22.778102 -83.231979 -10.755035 27.607299 65.589076 -1.248020 7.274938 -22.115623 0.000000 -0.000000 0.000000 -16.648190 -28.110414 -81.847738 8.627721 -22.041065 58.836260 10.343666 5.356058 -9.235519 0.000000 -0.000000 0.000000 7.774148 -2.914827 65.053216 0.437725 -6.178108 -14.065194 6.694735 6.851668 1.776074 -30.958570 -3.505970 20.096830 24.851815 16.470070 -46.997238 18.672517 -34.379836 -14.218883 15.980349 1.637430 -38.742001 20.452536 -29.820431 -80.045299 24.421472 0.447308 -29.901942 -2.943665 38.826888 20.037482 7.030491 -2.683226 -27.465729 -49.728758 72.626830 -50.959239 -24.814873 11.874621 -7.295912 
-0.205866 -0.177307 0.791148 -18.072231 1.911989 131.322485 22.597273 22.352917 -82.396204 -10.547165 28.091106 65.936977 -1.167303 7.176230 -22.064540 0.000000 -0.000000 0.000000 -17.027875 -28.692193 -81.391693 7.813902 -22.173412 59.264612 10.628605 6.529791 -8.745220 0.000000 -0.000000 0.000000 7.847663 -3.304086 65.316053 -0.190618 -6.293843 -13.629234 5.576894 7.423762 1.401959 -30.739210 -3.174996 20.652929 25.564932 16.654827 -46.482187 16.588911 -32.950651 -13.605867 13.928016 1.713456 -35.035260 26.110242 -37.676399 -79.399163 21.003835 -0.956746 -34.181456 -1.393848 40.425771 22.099520 7.823761 -3.011435 -28.972828 -48.807942 69.322545 -51.075811 -25.138312 10.907426 -7.119870 
-0.204088 -0.179392 0.795385 -18.086192 2.051781 130.888313 22.751268 22.047799 -81.527209 -10.187691 28.179140 65.587089 -1.116076 6.800390 -21.772102 0.000000 -0.000000 0.000000 -16.806879 -28.326573 -80.683000 7.115096 -21.855714 58.891626 10.851398 6.916070 -8.243369 0.000000 -0.000000 0.000000 7.815478 -3.724054 65.289884 -0.726665 -6.141541 -13.286062 5.122485 7.716206 0.869638 -30.502336 -3.109068 21.298462 25.720395 17.644229 -45.854924 14.393558 -32.734651 -13.322216 11.442709 -0.145108 -33.454812 30.841241 -42.510881 -77.269495 19.290063 -1.049656 -35.333938 -0.663017 42.473214 23.751905 8.596698 -1.789292 -30.644358 -44.575440 65.582027 -47.694099 -26.192100 9.889964 -7.908100 
-0.202903 -0.180926 0.801528 -17.670412 2.532587 130.455896 22.915286 21.771186 -80.563012 -10.019636 27.838328 64.600268 -1.100268 6.352416 -21.421130 0.000000 -0.000000 0.000000 -16.550911 -27.406125 -79.513093 6.705577 -21.578629 57.984070 10.599183 6.488298 -8.070102 0.000000 -0.000000 0.000000 7.865646 -4.036429 65.238629 -1.026870 -5.972695 -13.016415 5.214447 7.678988 0.482371 -29.880166 -3.663464 21.437568 25.596449 18.447854 -45.372381 13.194764 -33.884301 -12.346559 8.213677 -1.719380 -32.182525 34.775444 -44.541081 -74.628932 20.332715 0.002001 -34.152181 -0.988796 44.478941 24.303797 9.504737 0.442597 -32.275701 -41.391386 62.592497 -45.193104 -27.544981 9.135198 -9.223688 
-0.202309 -0.182085 0.808275 -17.123900 2.936482 129.965381 22.705008 21.463807 -79.647442 -10.301825 27.033278 63.245925 -1.064243 6.082242 -20.990040 0.000000 -0.000000 0.000000 -16.254392 -26.586181 -78.199400 6.281376 -21.453098 57.051615 10.365441 6.065104 -7.773111 0.000000 -0.000000 0.000000 7.932757 -4.338470 65.395417 -1.204322 -5.973504 -12.954830 5.443413 7.409267 0.183101 -28.970572 -4.572837 21.178214 25.576478 18.899150 -44.708432 12.540073 -35.591770 -11.125625 4.750309 -3.158164 -30.905371 36.898354 -45.551067 -71.865739 21.976953 1.199244 -32.967757 -2.280852 45.956260 23.440655 10.813787 3.028095 -33.246918 -40.050103 61.519287 -44.082005 -28.364253 8.522661 -11.115516 
-0.202298 -0.182297 0.814779 -16.614459 3.223182 129.610803 22.436558 21.279157 -78.779458 -10.404852 26.483408 61.786470 -0.958435 5.535015 -20.486991 0.000000 -0.000000 0.000000 -16.019783 -25.733734 -77.080656 5.761482 -21.188498 56.094974 10.630576 5.896458 -7.465850 0.000000 -0.000000 0.000000 7.888274 -4.538112 65.454393 -1.294643 -6.014320 -12.934833 5.671422 7.174898 -0.163872 -28.300620 -5.811570 21.346302 25.357791 19.400003 -44.364722 11.539729 -37.312319 -10.140348 1.689633 -5.332288 -29.773124 36.607500 -46.352066 -68.652755 23.380724 2.329753 -31.466892 -3.238920 46.774267 22.568817 11.963349 5.181762 -33.586677 -40.862351 61.870614 -44.578754 -28.424390 8.362100 -11.662161 
-0.202780 -0.181989 0.820810 -16.310294 3.386168 129.189262 22.110442 21.078178 -77.900916 -10.328394 25.982242 60.554116 -1.126996 5.030552 -20.033768 0.000000 -0.000000 0.000000 -15.976731 -24.928885 -76.068565 5.375384 -20.922557 55.371750 10.858270 5.996054 -7.250324 0.000000 -0.000000 0.000000 7.868499 -4.717580 65.556846 -1.487241 -6.224463 -12.840190 5.642144 6.875808 -0.401211 -27.465509 -6.395843 20.823716 25.299610 19.479109 -43.903088 10.245513 -39.279812 -9.117141 -0.672840 -6.909085 -28.564664 35.224219 -47.050872 -64.167435 23.897063 2.530351 -29.374623 -3.766278 47.448996 21.741764 12.778519 6.755634 -33.660344 -42.255076 63.077048 -45.248291 -28.037668 8.463732 -12.686126 
